<svg width="18" height="19" viewBox="0 0 18 19" fill="none" xmlns="http://www.w3.org/2000/svg">
<path d="M17.2799 1.69353V17.7727C17.2822 18.0089 17.2135 18.2405 17.0823 18.4393C16.951 18.638 16.763 18.7951 16.5412 18.8913C16.375 18.9696 16.1927 19.0102 16.008 19.01C15.7062 19.0071 15.4152 18.9009 15.1858 18.71L8.63999 13.2483L2.09418 18.71C1.86483 18.9009 1.57373 19.0071 1.27194 19.01C1.08728 19.0102 0.904984 18.9696 0.738782 18.8913C0.517021 18.7951 0.328957 18.638 0.197719 18.4393C0.0664807 18.2405 -0.00221089 18.0089 5.42675e-05 17.7727V1.69353C5.42675e-05 1.24438 0.183458 0.81362 0.509928 0.496022C0.836398 0.178424 1.27919 0 1.74089 0H15.5391C16.0008 0 16.4436 0.178424 16.7701 0.496022C17.0965 0.81362 17.2799 1.24438 17.2799 1.69353Z" fill="#4D4D4F"/>
</svg>
