<svg width="18" height="19" viewBox="0 0 18 19" fill="none" xmlns="http://www.w3.org/2000/svg">
<path d="M15.5387 1.1534e-05H1.74722C1.51808 -0.000811172 1.29101 0.0423858 1.07906 0.127136C0.867118 0.211887 0.674465 0.33652 0.512136 0.493881C0.349807 0.651242 0.220991 0.838238 0.133106 1.04414C0.0452217 1.25005 -1.56004e-06 1.4708 0 1.69376V17.775C0.00247026 18.0102 0.0731005 18.24 0.203776 18.4379C0.334452 18.6358 0.519866 18.7938 0.738711 18.8938C0.906104 18.968 1.08791 19.0063 1.27186 19.0063C1.57284 19.0051 1.86384 18.9011 2.09408 18.7125L8.63974 13.25L15.1918 18.7125C15.3782 18.8578 15.6024 18.9498 15.8395 18.9779C16.0765 19.0061 16.3169 18.9695 16.5337 18.8721C16.7506 18.7748 16.9352 18.6205 17.0669 18.4267C17.1987 18.2329 17.2723 18.0072 17.2795 17.775V1.69376C17.2795 1.24455 17.0961 0.813734 16.7696 0.496094C16.4432 0.178454 16.0004 1.1534e-05 15.5387 1.1534e-05ZM16.2517 17.775C16.2517 17.8191 16.2391 17.8624 16.2153 17.8999C16.1915 17.9374 16.1574 17.9678 16.1168 17.9875C16.0749 18.0062 16.0283 18.0126 15.9826 18.0059C15.937 17.9993 15.8943 17.9798 15.8599 17.95L8.97379 12.2125C8.88315 12.1404 8.76968 12.101 8.65261 12.101C8.53553 12.101 8.42206 12.1404 8.33142 12.2125L1.45172 17.95C1.41743 17.9806 1.37466 18.0007 1.32871 18.0079C1.28277 18.0151 1.23568 18.009 1.19327 17.9903C1.15087 17.9717 1.11501 17.9414 1.09016 17.9031C1.06531 17.8648 1.05254 17.8203 1.05346 17.775V1.69376C1.05516 1.50919 1.13169 1.33274 1.26643 1.20281C1.40117 1.07289 1.5832 0.999999 1.7729 1.00001H15.5644C15.658 1.00001 15.7507 1.01796 15.8373 1.05282C15.9238 1.08768 16.0024 1.13878 16.0686 1.20321C16.1348 1.26763 16.1873 1.3441 16.2231 1.42827C16.259 1.51244 16.2774 1.60265 16.2774 1.69376L16.2517 17.775Z" fill="#4D4D4F"/>
</svg>
