<!-- <svg xmlns="http://www.w3.org/2000/svg" id="Outline" viewBox="0 0 24 24" width="512" height="512"><path d="M20.137,24a2.8,2.8,0,0,1-1.987-.835L12,17.051,5.85,23.169a2.8,2.8,0,0,1-3.095.609A2.8,2.8,0,0,1,1,21.154V5A5,5,0,0,1,6,0H18a5,5,0,0,1,5,5V21.154a2.8,2.8,0,0,1-1.751,2.624A2.867,2.867,0,0,1,20.137,24ZM6,2A3,3,0,0,0,3,5V21.154a.843.843,0,0,0,1.437.6h0L11.3,14.933a1,1,0,0,1,1.41,0l6.855,6.819a.843.843,0,0,0,1.437-.6V5a3,3,0,0,0-3-3Z"/></svg> -->


 <svg xmlns="http://www.w3.org/2000/svg" id="Layer_1" data-name="Layer 1" viewBox="0 0 24 24" width="512" height="512"><path d="m12,0C5.383,0,0,5.383,0,12s5.383,12,12,12,12-5.383,12-12S18.617,0,12,0Zm0,23c-6.065,0-11-4.935-11-11S5.935,1,12,1s11,4.935,11,11-4.935,11-11,11Zm2.5-17h-5c-1.379,0-2.5,1.122-2.5,2.5v8.181c0,.535.319,1.013.813,1.218.5.206,1.051.099,1.437-.286l2.75-2.75,2.75,2.75c.256.256.584.39.924.39.171,0,.345-.034.513-.104.494-.205.813-.683.813-1.218v-8.181c0-1.378-1.121-2.5-2.5-2.5Zm1.5,10.681c0,.191-.138.27-.196.294-.058.023-.211.066-.347-.069l-3.457-3.457-3.457,3.457c-.136.135-.289.093-.347.069-.059-.024-.196-.103-.196-.294v-8.181c0-.827.673-1.5,1.5-1.5h5c.827,0,1.5.673,1.5,1.5v8.181Z"/></svg>