<svg width="200" height="55" viewBox="0 0 200 55" fill="none" xmlns="http://www.w3.org/2000/svg">
<rect y="10" width="200" height="35" rx="17.5" fill="black" fill-opacity="0.8"/>
<path d="M52.68 28.976C52.68 29.568 52.56 30.104 52.32 30.584C52.08 31.056 51.712 31.432 51.216 31.712C50.728 31.984 50.104 32.12 49.344 32.12C48.28 32.12 47.468 31.832 46.908 31.256C46.356 30.672 46.08 29.904 46.08 28.952V23.432H47.16V28.988C47.16 29.684 47.344 30.224 47.712 30.608C48.088 30.992 48.652 31.184 49.404 31.184C49.924 31.184 50.344 31.092 50.664 30.908C50.992 30.716 51.232 30.456 51.384 30.128C51.536 29.792 51.612 29.408 51.612 28.976V23.432H52.68V28.976ZM57.1853 23.432C57.8973 23.432 58.4813 23.524 58.9373 23.708C59.4013 23.884 59.7453 24.152 59.9693 24.512C60.1933 24.872 60.3053 25.324 60.3053 25.868C60.3053 26.324 60.2213 26.704 60.0533 27.008C59.8853 27.312 59.6693 27.556 59.4053 27.74C59.1493 27.916 58.8773 28.056 58.5893 28.16L60.9413 32H59.6813L57.6053 28.46H55.9013V32H54.8213V23.432H57.1853ZM57.1253 24.368H55.9013V27.548H57.1853C57.6493 27.548 58.0293 27.488 58.3253 27.368C58.6213 27.24 58.8373 27.056 58.9733 26.816C59.1173 26.576 59.1893 26.276 59.1893 25.916C59.1893 25.54 59.1133 25.24 58.9613 25.016C58.8173 24.792 58.5933 24.628 58.2893 24.524C57.9853 24.42 57.5973 24.368 57.1253 24.368ZM62.1662 32V23.432H63.2462V31.04H66.9902V32H62.1662ZM75.6472 22.076H76.6432V32.948H75.6472V22.076ZM70.9192 22.916C72.5272 22.916 73.6792 24.392 73.6792 26.696C73.6792 29.012 72.5272 30.488 70.9192 30.488C69.3232 30.488 68.1712 29.012 68.1712 26.696C68.1712 24.392 69.3232 22.916 70.9192 22.916ZM70.9192 23.816C69.8632 23.816 69.1192 24.944 69.1192 26.696C69.1192 28.46 69.8632 29.612 70.9192 29.612C71.9872 29.612 72.7192 28.46 72.7192 26.696C72.7192 24.944 71.9872 23.816 70.9192 23.816ZM81.6794 27.68H91.4834V28.496H81.6794V27.68ZM86.0954 26.06H87.0794V27.932H86.0954V26.06ZM82.7714 29.552H90.2714V32.936H89.2754V30.368H82.7714V29.552ZM82.9874 22.34H83.9714V23.564H89.2154V22.34H90.2114V26.396H82.9874V22.34ZM83.9714 24.344V25.604H89.2154V24.344H83.9714ZM95.2625 23.024H96.0785V24.968C96.0785 27.368 94.7825 29.708 93.0665 30.62L92.4545 29.828C94.0265 29.036 95.2625 26.948 95.2625 24.968V23.024ZM95.4425 23.024H96.2465V24.968C96.2465 26.876 97.4585 28.856 98.9945 29.624L98.3825 30.416C96.7025 29.516 95.4425 27.296 95.4425 24.968V23.024ZM99.9425 22.088H100.95V32.936H99.9425V22.088ZM100.71 26.48H102.726V27.32H100.71V26.48ZM104.382 26.756H109.938V27.572H104.382V26.756ZM106.602 27.404H107.61V29.9H106.602V27.404ZM104.382 23.108H109.878V23.924H105.378V27.044H104.382V23.108ZM111.366 22.076H112.362V32.948H111.366V22.076ZM103.722 30.596L103.578 29.768C105.702 29.756 108.366 29.732 110.658 29.456L110.742 30.2C108.366 30.56 105.774 30.608 103.722 30.596ZM117.209 28.7H117.989V29.324C117.989 30.764 117.101 32.204 115.541 32.804L115.037 32.06C116.405 31.556 117.209 30.38 117.209 29.324V28.7ZM117.437 28.7H118.181V29.324C118.181 30.428 118.817 31.616 120.125 32.144L119.705 32.9C118.133 32.288 117.437 30.776 117.437 29.324V28.7ZM121.229 28.7H121.961V29.324C121.961 30.608 121.253 32.24 119.705 32.9L119.273 32.144C120.569 31.544 121.229 30.272 121.229 29.324V28.7ZM121.421 28.7H122.201V29.324C122.201 30.464 122.993 31.592 124.385 32.06L123.869 32.804C122.297 32.228 121.421 30.836 121.421 29.324V28.7ZM119.777 24.8H122.645V25.628H119.777V24.8ZM117.401 22.7C118.997 22.7 120.185 23.744 120.185 25.244C120.185 26.732 118.997 27.776 117.401 27.776C115.805 27.776 114.629 26.732 114.629 25.244C114.629 23.744 115.805 22.7 117.401 22.7ZM117.401 23.528C116.345 23.528 115.577 24.248 115.577 25.244C115.577 26.24 116.345 26.948 117.401 26.948C118.445 26.948 119.225 26.24 119.225 25.244C119.225 24.248 118.445 23.528 117.401 23.528ZM122.369 22.088H123.365V28.268H122.369V22.088ZM126.604 28.592H127.588V29.852H132.892V28.592H133.888V32.792H126.604V28.592ZM127.588 30.62V31.988H132.892V30.62H127.588ZM125.356 27.032H135.16V27.836H125.356V27.032ZM129.76 22.208H130.612V22.688C130.612 24.572 128.512 25.928 126.28 26.264L125.92 25.484C127.876 25.22 129.76 24.056 129.76 22.688V22.208ZM129.916 22.208H130.768V22.688C130.768 24.032 132.676 25.22 134.608 25.484L134.236 26.264C132.028 25.928 129.916 24.548 129.916 22.688V22.208ZM144.171 22.088H145.167V32.936H144.171V22.088ZM136.971 23.144H137.955V29.864H136.971V23.144ZM136.971 29.276H137.859C139.503 29.276 141.219 29.156 143.055 28.772L143.175 29.624C141.291 30.008 139.575 30.14 137.859 30.14H136.971V29.276ZM154.538 22.076H155.546V32.948H154.538V22.076ZM155.306 26.36H157.322V27.2H155.306V26.36ZM147.662 29.408H148.514C150.518 29.408 151.922 29.336 153.542 29.036L153.65 29.876C151.982 30.188 150.554 30.248 148.514 30.248H147.662V29.408ZM147.662 23.132H152.702V23.948H148.646V29.78H147.662V23.132Z" fill="white"/>
<path d="M14 28L16.2 30.9333C16.6 31.4667 17.4 31.4667 17.8 30.9333L23 24" stroke="white" stroke-width="2" stroke-linecap="round"/>
</svg>
