<svg width="200" height="35" viewBox="0 0 200 35" fill="none" xmlns="http://www.w3.org/2000/svg">
<rect width="200" height="35" rx="17.5" fill="black" fill-opacity="0.8"/>
<path d="M65.264 12.64H66.08V13.756C66.08 15.808 64.904 17.5 63.08 18.196L62.564 17.392C64.196 16.804 65.264 15.376 65.264 13.756V12.64ZM65.444 12.64H66.248V13.828C66.248 15.292 67.328 16.648 68.888 17.188L68.384 17.98C66.62 17.332 65.444 15.712 65.444 13.828V12.64ZM70.016 12.088H71.012V18.652H70.016V12.088ZM70.736 14.944H72.62V15.784H70.736V14.944ZM63.968 19.192H71.012V22.936H70.016V20.02H63.968V19.192ZM81.7631 12.088H82.7231V22.936H81.7631V12.088ZM77.8151 15.976H79.8911V16.804H77.8151V15.976ZM79.5911 12.34H80.5271V22.384H79.5911V12.34ZM75.7271 13.768H76.4951V15.148C76.4951 17.524 75.5831 19.768 73.9871 20.776L73.3751 20.032C74.8871 19.12 75.7271 17.14 75.7271 15.148V13.768ZM75.9311 13.768H76.6991V15.148C76.6991 17.032 77.5151 18.916 79.0031 19.78L78.3911 20.512C76.8071 19.552 75.9311 17.416 75.9311 15.148V13.768ZM73.6751 13.348H78.6311V14.176H73.6751V13.348ZM85.2901 16.756H90.8461V17.572H85.2901V16.756ZM87.5101 17.404H88.5181V19.9H87.5101V17.404ZM85.2901 13.108H90.7861V13.924H86.2861V17.044H85.2901V13.108ZM92.2741 12.076H93.2701V22.948H92.2741V12.076ZM84.6301 20.596L84.4861 19.768C86.6101 19.756 89.2741 19.732 91.5661 19.456L91.6501 20.2C89.2741 20.56 86.6821 20.608 84.6301 20.596ZM98.1172 18.7H98.8972V19.324C98.8972 20.764 98.0092 22.204 96.4492 22.804L95.9452 22.06C97.3132 21.556 98.1172 20.38 98.1172 19.324V18.7ZM98.3452 18.7H99.0892V19.324C99.0892 20.428 99.7252 21.616 101.033 22.144L100.613 22.9C99.0412 22.288 98.3452 20.776 98.3452 19.324V18.7ZM102.137 18.7H102.869V19.324C102.869 20.608 102.161 22.24 100.613 22.9L100.181 22.144C101.477 21.544 102.137 20.272 102.137 19.324V18.7ZM102.329 18.7H103.109V19.324C103.109 20.464 103.901 21.592 105.293 22.06L104.777 22.804C103.205 22.228 102.329 20.836 102.329 19.324V18.7ZM100.685 14.8H103.553V15.628H100.685V14.8ZM98.3092 12.7C99.9052 12.7 101.093 13.744 101.093 15.244C101.093 16.732 99.9052 17.776 98.3092 17.776C96.7132 17.776 95.5372 16.732 95.5372 15.244C95.5372 13.744 96.7132 12.7 98.3092 12.7ZM98.3092 13.528C97.2532 13.528 96.4852 14.248 96.4852 15.244C96.4852 16.24 97.2532 16.948 98.3092 16.948C99.3532 16.948 100.133 16.24 100.133 15.244C100.133 14.248 99.3532 13.528 98.3092 13.528ZM103.277 12.088H104.273V18.268H103.277V12.088ZM107.512 18.592H108.496V19.852H113.8V18.592H114.796V22.792H107.512V18.592ZM108.496 20.62V21.988H113.8V20.62H108.496ZM106.264 17.032H116.068V17.836H106.264V17.032ZM110.668 12.208H111.52V12.688C111.52 14.572 109.42 15.928 107.188 16.264L106.828 15.484C108.784 15.22 110.668 14.056 110.668 12.688V12.208ZM110.824 12.208H111.676V12.688C111.676 14.032 113.584 15.22 115.516 15.484L115.144 16.264C112.936 15.928 110.824 14.548 110.824 12.688V12.208ZM125.079 12.088H126.075V22.936H125.079V12.088ZM117.879 13.144H118.863V19.864H117.879V13.144ZM117.879 19.276H118.767C120.411 19.276 122.127 19.156 123.963 18.772L124.083 19.624C122.199 20.008 120.483 20.14 118.767 20.14H117.879V19.276ZM135.446 12.076H136.454V22.948H135.446V12.076ZM136.214 16.36H138.23V17.2H136.214V16.36ZM128.57 19.408H129.422C131.426 19.408 132.83 19.336 134.45 19.036L134.558 19.876C132.89 20.188 131.462 20.248 129.422 20.248H128.57V19.408ZM128.57 13.132H133.61V13.948H129.554V19.78H128.57V13.132Z" fill="white"/>
<path d="M17.125 19.875L17.125 17.625" stroke="white" stroke-linecap="round"/>
<path d="M20.875 19.875L20.875 17.625" stroke="white" stroke-linecap="round"/>
<path d="M12.25 13.875H25.75V13.875C25.1689 13.875 24.8783 13.875 24.639 13.9349C23.9232 14.1142 23.3642 14.6732 23.1849 15.389C23.125 15.6283 23.125 15.9189 23.125 16.5V19.625C23.125 21.5106 23.125 22.4534 22.5392 23.0392C21.9534 23.625 21.0106 23.625 19.125 23.625H18.875C16.9894 23.625 16.0466 23.625 15.4608 23.0392C14.875 22.4534 14.875 21.5106 14.875 19.625V16.5C14.875 15.9189 14.875 15.6283 14.8151 15.389C14.6358 14.6732 14.0768 14.1142 13.361 13.9349C13.1217 13.875 12.8311 13.875 12.25 13.875V13.875Z" stroke="white" stroke-linecap="round"/>
<path d="M17.125 11.6252C17.125 11.6252 17.5 10.875 19 10.875C20.5 10.875 20.875 11.625 20.875 11.625" stroke="white" stroke-linecap="round"/>
</svg>
