<svg width="36" height="36" viewBox="0 0 36 36" fill="none" xmlns="http://www.w3.org/2000/svg">
<circle cx="18" cy="18" r="18" fill="#D9D9D9" fill-opacity="0.5"/>
<path d="M16 21L16 18" stroke="#33363F" stroke-width="2" stroke-linecap="round"/>
<path d="M20 21L20 18" stroke="#33363F" stroke-width="2" stroke-linecap="round"/>
<path d="M9 13H27V13C26.0681 13 25.6022 13 25.2346 13.1522C24.7446 13.3552 24.3552 13.7446 24.1522 14.2346C24 14.6022 24 15.0681 24 16V22C24 23.8856 24 24.8284 23.4142 25.4142C22.8284 26 21.8856 26 20 26H16C14.1144 26 13.1716 26 12.5858 25.4142C12 24.8284 12 23.8856 12 22V16C12 15.0681 12 14.6022 11.8478 14.2346C11.6448 13.7446 11.2554 13.3552 10.7654 13.1522C10.3978 13 9.93188 13 9 13V13Z" stroke="#33363F" stroke-width="2" stroke-linecap="round"/>
<path d="M16.0681 9.37059C16.1821 9.26427 16.4332 9.17033 16.7825 9.10332C17.1318 9.03632 17.5597 9 18 9C18.4403 9 18.8682 9.03632 19.2175 9.10332C19.5668 9.17033 19.8179 9.26427 19.9319 9.37059" stroke="#33363F" stroke-width="2" stroke-linecap="round"/>
</svg>
