<svg width="45" height="45" viewBox="0 0 45 45" fill="none" xmlns="http://www.w3.org/2000/svg">
<circle cx="22.5" cy="22.5" r="22.5" fill="#D9D9D9" fill-opacity="0.5"/>
<path d="M20.4004 25.6484L20.4004 22.4984" stroke="#33363F" stroke-width="2" stroke-linecap="round"/>
<path d="M24.5996 25.6484L24.5996 22.4984" stroke="#33363F" stroke-width="2" stroke-linecap="round"/>
<path d="M13.0508 17.25H31.9508V17.25C30.8778 17.25 30.3413 17.25 29.928 17.4505C29.5238 17.6466 29.1973 17.973 29.0013 18.3772C28.8008 18.7906 28.8008 19.327 28.8008 20.4V26.9C28.8008 28.7856 28.8008 29.7284 28.215 30.3142C27.6292 30.9 26.6864 30.9 24.8008 30.9H20.2008C18.3152 30.9 17.3724 30.9 16.7866 30.3142C16.2008 29.7284 16.2008 28.7856 16.2008 26.9V20.4C16.2008 19.327 16.2008 18.7906 16.0003 18.3772C15.8042 17.973 15.4778 17.6466 15.0736 17.4505C14.6602 17.25 14.1237 17.25 13.0508 17.25V17.25Z" stroke="#33363F" stroke-width="2" stroke-linecap="round"/>
<path d="M20.4712 13.436C20.5908 13.3244 20.8545 13.2257 21.2212 13.1554C21.588 13.085 22.0373 13.0469 22.4996 13.0469C22.9619 13.0469 23.4113 13.085 23.778 13.1554C24.1448 13.2257 24.4084 13.3244 24.5281 13.436" stroke="#33363F" stroke-width="2" stroke-linecap="round"/>
</svg>
