<svg width="45" height="45" viewBox="0 0 45 45" fill="none" xmlns="http://www.w3.org/2000/svg">
<path d="M45 22.5C45 34.9264 34.9264 45 22.5 45C10.0736 45 0 34.9264 0 22.5C0 10.0736 10.0736 0 22.5 0C34.9264 0 45 10.0736 45 22.5Z" fill="#D9D9D9" fill-opacity="0.5"/>
<path d="M15.885 24.5465L15.885 24.5465C15.8719 24.5596 15.8584 24.573 15.8446 24.5867C15.6925 24.738 15.4998 24.9294 15.363 25.1712L16.2332 25.6639L15.363 25.1712C15.2261 25.4129 15.161 25.6766 15.1096 25.8849C15.1049 25.9038 15.1004 25.9223 15.0959 25.9402L14.3824 28.7943C14.3796 28.8055 14.3766 28.8172 14.3736 28.8292C14.3368 28.9757 14.2858 29.1786 14.2682 29.3582C14.248 29.5649 14.2413 30.0168 14.6101 30.3856C14.9789 30.7544 15.4308 30.7477 15.6375 30.7275C15.8171 30.7099 16.0201 30.6589 16.1665 30.6221C16.1785 30.6191 16.1902 30.6161 16.2014 30.6133L19.0555 29.8998C19.0734 29.8953 19.0919 29.8908 19.1108 29.8861C19.3191 29.8347 19.5828 29.7696 19.8245 29.6327L19.3318 28.7625L19.8245 29.6327C20.0663 29.4959 20.2578 29.3033 20.409 29.1511C20.4227 29.1373 20.4361 29.1238 20.4492 29.1107L28.0933 21.4666C28.1061 21.4538 28.119 21.441 28.1318 21.4282C28.4317 21.1284 28.7232 20.837 28.9312 20.5643C29.1657 20.2569 29.3862 19.859 29.3862 19.3453C29.3862 18.8316 29.1657 18.4337 28.9312 18.1263C28.7232 17.8536 28.4317 17.5623 28.1318 17.2625C28.1189 17.2496 28.1061 17.2368 28.0933 17.224L27.7717 16.9024C27.7589 16.8896 27.7461 16.8768 27.7333 16.8639C27.4334 16.564 27.1421 16.2725 26.8694 16.0645C26.562 15.83 26.1641 15.6095 25.6504 15.6095C25.1367 15.6095 24.7388 15.83 24.4314 16.0645C24.1587 16.2725 23.8673 16.564 23.5675 16.8639C23.5547 16.8768 23.5419 16.8896 23.5291 16.9024L15.885 24.5465Z" stroke="#33363F" stroke-width="2"/>
<path d="M23.0254 17.7719L26.1754 15.6719L29.3254 18.8219L27.2254 21.9719L23.0254 17.7719Z" fill="#33363F"/>
</svg>
