<svg width="23" height="20" viewBox="0 0 23 20" fill="none" xmlns="http://www.w3.org/2000/svg">
<path d="M19.7818 0.943609C18.8183 0.328666 17.7015 0.00147499 16.561 1.38485e-06C15.5751 0.0103496 14.6053 0.253104 13.7293 0.708806C12.8533 1.16451 12.0954 1.8205 11.5163 2.62424C10.9382 1.81953 10.1805 1.16283 9.30431 0.707017C8.42809 0.251208 7.45785 0.00903134 6.47171 1.38485e-06C5.32559 -0.000776852 4.20285 0.326467 3.23427 0.943609C0.140975 2.88665 -0.917843 7.1915 0.86718 10.5527C2.32513 13.2998 8.47293 18.0681 10.6959 19.732C10.9283 19.906 11.2101 20 11.4997 20C11.7893 20 12.0711 19.906 12.3035 19.732C14.5209 18.0569 20.6743 13.2998 22.1322 10.5527C23.9172 7.18592 22.8584 2.88107 19.7818 0.943609ZM21.2286 10.0614C20.1199 12.1161 15.5908 15.9687 11.6993 18.8889C11.6463 18.9284 11.5822 18.9499 11.5163 18.9503C11.4521 18.9499 11.3898 18.9283 11.3389 18.8889C7.45846 15.9687 2.90166 12.1161 1.80958 10.0614C0.279564 7.17475 1.17762 3.48967 3.80526 1.83697C4.60347 1.32917 5.52761 1.05825 6.47171 1.05528C7.29545 1.06254 8.10586 1.26554 8.83699 1.64781C9.56813 2.03008 10.1993 2.58081 10.6793 3.25517L11.5163 4.37187L12.3534 3.25517C12.8333 2.58081 13.4645 2.03008 14.1957 1.64781C14.9268 1.26554 15.7372 1.06254 16.561 1.05528C17.5051 1.05825 18.4292 1.32917 19.2274 1.83697C21.844 3.48409 22.742 7.16918 21.212 10.0558L21.2286 10.0614Z" fill="#4D4D4F"/>
</svg>
