<svg width="26" height="26" viewBox="0 0 26 26" fill="none" xmlns="http://www.w3.org/2000/svg">
<path fill-rule="evenodd" clip-rule="evenodd" d="M13 25.5C19.9036 25.5 25.5 19.9036 25.5 13C25.5 6.09644 19.9036 0.5 13 0.5C6.09644 0.5 0.5 6.09644 0.5 13C0.5 19.9036 6.09644 25.5 13 25.5ZM5.80139 12.7125C5.80139 9.33908 9.01203 6.56034 12.9932 6.56034C16.9693 6.56034 20.1953 9.33352 20.1953 12.7125C20.1953 16.0915 16.9795 18.8702 13.0035 18.8702C12.5687 18.8679 12.1345 18.8345 11.7038 18.7702L8.786 20.8987C8.75137 20.9309 8.70821 20.9503 8.66271 20.9543C8.60784 20.9541 8.55489 20.9324 8.51374 20.8932C8.48551 20.8624 8.46576 20.8238 8.45669 20.7816C8.44761 20.7394 8.44958 20.6953 8.46237 20.6542L9.14045 17.9143C7.13701 16.8195 5.80139 14.9022 5.80139 12.7125Z" fill="#343434"/>
</svg>
