<svg width="26" height="26" viewBox="0 0 26 26" fill="none" xmlns="http://www.w3.org/2000/svg">
<circle cx="13" cy="13" r="12.5" fill="#343434"/>
<path d="M19.9991 13.4036C19.9991 12.8485 19.9531 12.4435 19.8537 12.0234H13.3867V14.5288H17.1827C17.1062 15.1514 16.6929 16.089 15.7745 16.719L15.7616 16.8029L17.8064 18.3555L17.948 18.3693C19.2491 17.1916 19.9991 15.4589 19.9991 13.4036Z" fill="white"/>
<path d="M13.3876 20.0017C15.2473 20.0017 16.8085 19.4016 17.9489 18.3665L15.7754 16.7162C15.1937 17.1137 14.4131 17.3913 13.3876 17.3913C11.5661 17.3913 10.0202 16.2137 9.4691 14.5859L9.38833 14.5927L7.26218 16.2054L7.23438 16.2811C8.36704 18.4864 10.6936 20.0017 13.3876 20.0017Z" fill="white"/>
<path d="M9.46942 14.586C9.32401 14.1659 9.23986 13.7158 9.23986 13.2508C9.23986 12.7857 9.32401 12.3356 9.46177 11.9156L9.45792 11.8261L7.30513 10.1875L7.23469 10.2203C6.76787 11.1355 6.5 12.1631 6.5 13.2508C6.5 14.3384 6.76787 15.366 7.23469 16.2812L9.46942 14.586Z" fill="white"/>
<path d="M13.3876 9.11034C14.681 9.11034 15.5534 9.65792 16.0509 10.1155L17.9948 8.25524C16.8009 7.1676 15.2473 6.5 13.3876 6.5C10.6936 6.5 8.36704 8.0152 7.23438 10.2205L9.46145 11.9157C10.0202 10.288 11.5661 9.11034 13.3876 9.11034Z" fill="white"/>
</svg>
