<svg width="37" height="36" viewBox="0 0 37 36" fill="none" xmlns="http://www.w3.org/2000/svg">
<circle cx="18.5" cy="18" r="18" fill="#D9D9D9" fill-opacity="0.5"/>
<path d="M21.7146 27H14.2854C12.8841 26.9983 11.5408 26.456 10.5499 25.4919C9.55911 24.5277 9.00171 23.2206 9 21.8571V14.1429C9.00171 12.7794 9.55911 11.4723 10.5499 10.5081C11.5408 9.54404 12.8841 9.00167 14.2854 9H21.7146C23.1159 9.00167 24.4592 9.54404 25.4501 10.5081C26.4409 11.4723 26.9983 12.7794 27 14.1429V21.8571C26.9983 23.2206 26.4409 24.5277 25.4501 25.4919C24.4592 26.456 23.1159 26.9983 21.7146 27V27ZM14.2854 10.3204C13.2434 10.3212 12.2444 10.7241 11.5074 11.4407C10.7703 12.1573 10.3554 13.129 10.3537 14.1429V21.8571C10.3554 22.8712 10.7702 23.8434 11.5072 24.5604C12.2441 25.2775 13.2431 25.6811 14.2854 25.6828H21.7146C22.7566 25.6811 23.7553 25.2774 24.4917 24.5602C25.2281 23.8431 25.6422 22.871 25.643 21.8571V14.1429C25.6422 13.1293 25.228 12.1576 24.4915 11.4409C23.755 10.7242 22.7563 10.3212 21.7146 10.3204H14.2854Z" fill="#232323"/>
<path d="M18.0008 22.7581C16.6978 22.7565 15.4487 22.2518 14.5276 21.355C13.6065 20.4582 13.0887 19.2424 13.0879 17.9745C13.0894 17.3283 13.2234 16.6889 13.482 16.0937C13.7406 15.4985 14.1185 14.9595 14.5938 14.5081C15.0451 14.0759 15.5816 13.737 16.171 13.5117C16.7604 13.2864 17.3905 13.1794 18.0235 13.1972C19.5553 13.2413 20.8248 13.7424 21.696 14.6468C22.1159 15.0995 22.4396 15.6285 22.6486 16.2034C22.8576 16.7783 22.9477 17.3877 22.9137 17.9966C22.8946 19.2611 22.3736 20.4693 21.4596 21.3684C21.0061 21.8111 20.4669 22.1618 19.8732 22.4004C19.2795 22.6389 18.6431 22.7605 18.0008 22.7581V22.7581ZM17.8875 14.8012C17.0856 14.8037 16.3168 15.1127 15.7468 15.6615C15.4296 15.9626 15.1775 16.3223 15.0051 16.7195C14.8327 17.1167 14.7435 17.5434 14.7428 17.9745C14.7439 18.3908 14.8292 18.8029 14.9939 19.1871C15.1586 19.5713 15.3995 19.9202 15.7028 20.2139C16.0061 20.5075 16.3658 20.7402 16.7615 20.8985C17.1572 21.0569 17.5811 21.1379 18.0089 21.1368C18.4368 21.1358 18.8602 21.0528 19.2551 20.8925C19.6499 20.7322 20.0085 20.4978 20.3103 20.2027C20.6121 19.9076 20.8512 19.5576 21.0139 19.1725C21.1767 18.7875 21.2599 18.3751 21.2588 17.9588V17.9588C21.3113 17.1533 21.0342 16.3603 20.488 15.7529C19.9245 15.1667 19.0566 14.8422 17.9749 14.8075L17.8875 14.8012Z" fill="#232323"/>
<path d="M23.0312 14.1764C23.6644 14.1764 24.1777 13.677 24.1777 13.0609C24.1777 12.4448 23.6644 11.9453 23.0312 11.9453C22.398 11.9453 21.8848 12.4448 21.8848 13.0609C21.8848 13.677 22.398 14.1764 23.0312 14.1764Z" fill="#232323"/>
</svg>
