<svg width="45" height="45" viewBox="0 0 45 45" fill="none" xmlns="http://www.w3.org/2000/svg">
<circle cx="22.5" cy="22.5" r="22.5" fill="#D9D9D9" fill-opacity="0.5"/>
<path d="M27.0401 33.25H17.9599C16.2473 33.248 14.6054 32.5851 13.3944 31.4067C12.1834 30.2283 11.5021 28.6307 11.5 26.9643V17.5357C11.5021 15.8693 12.1834 14.2717 13.3944 13.0933C14.6054 11.9149 16.2473 11.252 17.9599 11.25H27.0401C28.7527 11.252 30.3946 11.9149 31.6056 13.0933C32.8166 14.2717 33.4979 15.8693 33.5 17.5357V26.9643C33.4979 28.6307 32.8166 30.2283 31.6056 31.4067C30.3946 32.5851 28.7527 33.248 27.0401 33.25ZM17.9599 12.8638C16.6864 12.8648 15.4654 13.3572 14.5646 14.2331C13.6637 15.1089 13.1566 16.2966 13.1546 17.5357V26.9643C13.1566 28.2037 13.6636 29.3919 14.5643 30.2683C15.465 31.1447 16.6861 31.638 17.9599 31.6401H27.0401C28.3136 31.638 29.5342 31.1446 30.4343 30.2681C31.3344 29.3915 31.8404 28.2034 31.8415 26.9643V17.5357C31.8404 16.297 31.3343 15.1092 30.434 14.2333C29.5338 13.3574 28.3132 12.8648 27.0401 12.8638H17.9599Z" fill="#232323"/>
<path d="M22.5008 28.0629C20.9082 28.0609 19.3815 27.4441 18.2557 26.348C17.13 25.2518 16.4971 23.7659 16.4961 22.2163C16.498 21.4265 16.6617 20.645 16.9778 19.9175C17.2938 19.19 17.7558 18.5312 18.3367 17.9796C18.8883 17.4513 19.544 17.037 20.2643 16.7617C20.9847 16.4863 21.7548 16.3556 22.5285 16.3773C24.4007 16.4312 25.9524 17.0436 27.0171 18.149C27.5303 18.7023 27.926 19.3489 28.1814 20.0515C28.4368 20.7542 28.5469 21.499 28.5054 22.2432C28.4821 23.7887 27.8453 25.2655 26.7282 26.3644C26.1739 26.9054 25.5149 27.3341 24.7893 27.6256C24.0637 27.9172 23.2858 28.0658 22.5008 28.0629ZM22.3622 18.3378C21.3821 18.3408 20.4425 18.7184 19.7458 19.3892C19.3582 19.7573 19.0501 20.1969 18.8394 20.6824C18.6287 21.1678 18.5197 21.6893 18.5188 22.2163C18.5201 22.7251 18.6243 23.2287 18.8257 23.6983C19.027 24.1679 19.3214 24.5943 19.6921 24.9532C20.0627 25.3121 20.5024 25.5965 20.9861 25.79C21.4697 25.9836 21.9877 26.0826 22.5107 26.0813C23.0336 26.08 23.5511 25.9785 24.0338 25.7827C24.5164 25.5868 24.9546 25.3003 25.3235 24.9396C25.6923 24.5789 25.9845 24.1511 26.1835 23.6805C26.3824 23.2099 26.4841 22.7058 26.4828 22.197C26.5469 21.2125 26.2082 20.2434 25.5407 19.5009C24.852 18.7845 23.7912 18.3878 22.4691 18.3455L22.3622 18.3378Z" fill="#232323"/>
<path d="M28.6493 17.5785C29.4231 17.5785 30.0505 16.968 30.0505 16.215C30.0505 15.462 29.4231 14.8516 28.6493 14.8516C27.8754 14.8516 27.248 15.462 27.248 16.215C27.248 16.968 27.8754 17.5785 28.6493 17.5785Z" fill="#232323"/>
</svg>
