<svg width="45" height="45" viewBox="0 0 45 45" fill="none" xmlns="http://www.w3.org/2000/svg">
<circle cx="22.5" cy="22.5" r="22.5" fill="#D9D9D9" fill-opacity="0.5"/>
<path fill-rule="evenodd" clip-rule="evenodd" d="M23.2513 15.1654C25.0238 13.3928 27.9549 13.3928 29.7274 15.1654C31.5 16.9379 31.5 19.869 29.7274 21.6415L26.4925 24.8764C24.9529 26.5436 22.4474 26.6312 20.7213 25.4805C20.1182 25.0784 19.9552 24.2635 20.3573 23.6604C20.7594 23.0573 21.5743 22.8943 22.1774 23.2964C22.9627 23.8199 24.0108 23.7042 24.5732 23.0856C24.5872 23.0702 24.6016 23.0551 24.6163 23.0404L27.8713 19.7854C28.6187 19.0379 28.6187 17.769 27.8713 17.0215C27.1506 16.3008 25.9451 16.275 25.1897 16.9441L25.0614 17.1365C24.6593 17.7396 23.8444 17.9026 23.2413 17.5005C22.6382 17.0984 22.4752 16.2835 22.8773 15.6804L23.0873 15.3654C23.1352 15.2935 23.1902 15.2265 23.2513 15.1654Z" fill="#232323"/>
<path fill-rule="evenodd" clip-rule="evenodd" d="M18.4675 20.0578C20.0134 18.6525 22.3923 18.2836 24.2329 19.664C24.8128 20.0989 24.9303 20.9216 24.4954 21.5015C24.0605 22.0814 23.2378 22.1989 22.6579 21.764C21.9867 21.2605 21.0211 21.3043 20.2611 21.9752L17.0381 25.3022L17.0235 25.317C16.276 26.0645 16.276 27.3335 17.0235 28.0809C17.7709 28.8283 19.0399 28.8283 19.7873 28.0809L20.7154 29.009L19.7873 28.0809L20.1023 27.7659C20.6149 27.2533 21.4459 27.2533 21.9585 27.7659C22.471 28.2785 22.471 29.1095 21.9585 29.622L21.6435 29.937C19.8709 31.7096 16.9399 31.7096 15.1673 29.937C13.3974 28.1671 13.3948 25.2423 15.1593 23.4689L18.4077 20.1157C18.427 20.0958 18.447 20.0765 18.4675 20.0578Z" fill="#232323"/>
</svg>
