<svg width="36" height="36" viewBox="0 0 36 36" fill="none" xmlns="http://www.w3.org/2000/svg">
<circle cx="18" cy="18" r="18" fill="#D9D9D9" fill-opacity="0.5"/>
<path fill-rule="evenodd" clip-rule="evenodd" d="M18.7162 11.0161C20.4044 9.32796 23.1959 9.32796 24.884 11.0161C26.5722 12.7043 26.5722 15.4957 24.884 17.1839L21.8032 20.2647C20.3368 21.8525 17.9507 21.936 16.3068 20.8401C15.7323 20.4571 15.5771 19.681 15.9601 19.1066C16.343 18.5322 17.1191 18.377 17.6935 18.7599C18.4414 19.2585 19.4396 19.1483 19.9752 18.5592C19.9885 18.5445 20.0022 18.5301 20.0162 18.5161L23.1162 15.4161C23.8281 14.7043 23.8281 13.4957 23.1162 12.7839C22.4299 12.0975 21.2818 12.073 20.5623 12.7102L20.4402 12.8934C20.0573 13.4678 19.2812 13.623 18.7068 13.2401C18.1323 12.8571 17.9771 12.081 18.3601 11.5066L18.5601 11.2066C18.6057 11.1381 18.658 11.0743 18.7162 11.0161Z" fill="#232323"/>
<path fill-rule="evenodd" clip-rule="evenodd" d="M14.1592 15.6774C15.6314 14.339 17.8971 13.9877 19.65 15.3024C20.2023 15.7166 20.3142 16.5001 19.9 17.0524C19.4858 17.6046 18.7023 17.7166 18.15 17.3024C17.5107 16.8229 16.5912 16.8646 15.8674 17.5035L12.7978 20.6721L12.7839 20.6862C12.072 21.3981 12.072 22.6066 12.7839 23.3185C13.4957 24.0303 14.7043 24.0303 15.4161 23.3185L16.3 24.2024L15.4161 23.3185L15.7161 23.0185C16.2043 22.5303 16.9957 22.5303 17.4839 23.0185C17.972 23.5066 17.972 24.2981 17.4839 24.7862L17.1839 25.0862C15.4957 26.7744 12.7043 26.7744 11.0161 25.0862C9.3305 23.4006 9.32797 20.615 11.0085 18.9261L14.1022 15.7326C14.1206 15.7136 14.1396 15.6952 14.1592 15.6774Z" fill="#232323"/>
</svg>
