<svg width="16" height="21" viewBox="0 0 16 21" fill="none" xmlns="http://www.w3.org/2000/svg">
<circle cx="7.875" cy="9.375" r="7.875" fill="#767676"/>
<path d="M5.94 13.71C5.44 13.71 5.00333 13.5367 4.63 13.19C4.25 12.85 4.06 12.4567 4.06 12.01C4.06 11.6233 4.20333 11.2967 4.49 11.03C4.59667 10.9233 4.70667 10.8367 4.82 10.77C4.93333 10.7033 5.05333 10.67 5.18 10.67H5.23C5.28333 10.67 5.31 10.68 5.31 10.7C5.31 10.7467 5.25333 10.78 5.14 10.8C4.97333 10.8267 4.81667 10.95 4.67 11.17C4.59667 11.2967 4.53333 11.4333 4.48 11.58C4.43333 11.72 4.41 11.8733 4.41 12.04C4.41 12.42 4.57 12.76 4.89 13.06C5.20333 13.3667 5.56667 13.52 5.98 13.52C6.32667 13.52 6.66 13.45 6.98 13.31C7.3 13.1767 7.60333 12.98 7.89 12.72C8.07667 12.56 8.26667 12.3567 8.46 12.11C8.66 11.8633 8.86333 11.57 9.07 11.23L10.69 8.54C10.0433 8.28667 9.52 8.08667 9.12 7.94C8.72667 7.78667 8.45667 7.68667 8.31 7.64C7.85 7.49333 7.40667 7.38333 6.98 7.31C6.55333 7.23667 6.13333 7.2 5.72 7.2C4.78667 7.2 4.32 7.45 4.32 7.95C4.32 8.36333 4.50333 8.74 4.87 9.08C4.91 9.10667 4.93 9.13667 4.93 9.17C4.93 9.19 4.91667 9.2 4.89 9.2C4.81 9.2 4.74667 9.17667 4.7 9.13C4.57333 9.04333 4.47 8.97 4.39 8.91C4.31667 8.84333 4.26333 8.78667 4.23 8.74C4.09667 8.56667 4.03 8.35333 4.03 8.1C4.03 7.72667 4.22667 7.43333 4.62 7.22C4.98 7.04667 5.40333 6.96 5.89 6.96C6.71667 6.96 7.56 7.08333 8.42 7.33C8.72667 7.41667 9.08667 7.53333 9.5 7.68C9.91333 7.82667 10.3833 8.00667 10.91 8.22C11.0567 8.05333 11.1833 7.93667 11.29 7.87C11.3633 7.83 11.45 7.8 11.55 7.78C11.6567 7.75333 11.7733 7.74 11.9 7.74C12.1467 7.74 12.3967 7.83667 12.65 8.03C12.8967 8.23 13.02 8.43 13.02 8.63C13.02 8.98333 12.8033 9.16 12.37 9.16C12.21 9.16 12.04 9.13 11.86 9.07C11.4533 8.93 11.1667 8.80667 11 8.7C10.7933 9.06667 10.56 9.47333 10.3 9.92C10.0467 10.3667 9.76333 10.8567 9.45 11.39C9.07 11.9767 8.61333 12.4767 8.08 12.89C7.36 13.4367 6.64667 13.71 5.94 13.71ZM12.55 8.83C12.71 8.83 12.79 8.76333 12.79 8.63C12.79 8.48333 12.7033 8.33333 12.53 8.18C12.3367 8.00667 12.12 7.92 11.88 7.92C11.5867 7.92 11.3667 8.07333 11.22 8.38C11.3267 8.43333 11.4367 8.48667 11.55 8.54C11.67 8.58667 11.7933 8.63333 11.92 8.68C12.2133 8.78 12.4233 8.83 12.55 8.83Z" fill="white"/>
</svg>
