<svg width="29" height="6" viewBox="0 0 29 6" fill="none" xmlns="http://www.w3.org/2000/svg">
<path d="M6.16679 2.78956C6.19737 3.3735 6.04225 3.9527 5.72149 4.45226C5.40074 4.95182 4.9291 5.34876 4.36757 5.59175C3.80604 5.83474 3.18045 5.91262 2.57168 5.81529C1.96292 5.71796 1.39899 5.44991 0.952821 5.04581C0.506649 4.64171 0.198761 4.12014 0.0689615 3.54855C-0.0608385 2.97695 -0.00657637 2.38162 0.224734 1.83955C0.456043 1.29748 0.853763 0.833585 1.36646 0.507866C1.87915 0.182148 2.48324 0.00958 3.10061 0.0124828C3.50151 -0.0244962 3.90612 0.0209185 4.28679 0.145611C4.66746 0.270304 5.01522 0.471341 5.30632 0.734992C5.59742 0.998643 5.82499 1.3187 5.9735 1.67328C6.122 2.02787 6.18794 2.40863 6.16679 2.78956Z" fill="#4D4D4F"/>
<path d="M17.3035 2.78956C17.3341 3.3735 17.179 3.9527 16.8582 4.45226C16.5375 4.95182 16.0658 5.34876 15.5043 5.59175C14.9428 5.83474 14.3172 5.91262 13.7084 5.81529C13.0996 5.71796 12.5357 5.44991 12.0895 5.04581C11.6434 4.64171 11.3355 4.12014 11.2057 3.54855C11.0759 2.97695 11.1301 2.38162 11.3615 1.83955C11.5928 1.29748 11.9905 0.833585 12.5032 0.507866C13.0159 0.182148 13.62 0.00958 14.2373 0.0124828C14.6382 -0.0244962 15.0428 0.0209185 15.4235 0.145611C15.8042 0.270304 16.1519 0.471341 16.443 0.734992C16.7341 0.998643 16.9617 1.3187 17.1102 1.67328C17.2587 2.02787 17.3247 2.40863 17.3035 2.78956Z" fill="#4D4D4F"/>
<path d="M28.4422 2.78956C28.4728 3.3735 28.3176 3.9527 27.9969 4.45226C27.6761 4.95182 27.2045 5.34876 26.643 5.59175C26.0814 5.83474 25.4558 5.91262 24.8471 5.81529C24.2383 5.71796 23.6744 5.44991 23.2282 5.04581C22.782 4.64171 22.4741 4.12014 22.3444 3.54855C22.2146 2.97695 22.2688 2.38162 22.5001 1.83955C22.7314 1.29748 23.1292 0.833585 23.6418 0.507866C24.1545 0.182148 24.7586 0.00958 25.376 0.0124828C25.7769 -0.0244962 26.1815 0.0209185 26.5622 0.145611C26.9429 0.270304 27.2906 0.471341 27.5817 0.734992C27.8728 0.998643 28.1004 1.3187 28.2489 1.67328C28.3974 2.02787 28.4633 2.40863 28.4422 2.78956Z" fill="#4D4D4F"/>
</svg>
