<svg width="200" height="55" viewBox="0 0 200 55" fill="none" xmlns="http://www.w3.org/2000/svg">
<rect y="10" width="200" height="35" rx="17.5" fill="black" fill-opacity="0.8"/>
<path d="M70.484 22.1H71.492V30.044H70.484V22.1ZM64.52 31.88H71.816V32.696H64.52V31.88ZM64.52 29.312H65.504V32.264H64.52V29.312ZM65.42 22.688H66.248V23.792C66.248 25.904 65.048 27.752 63.224 28.496L62.708 27.692C64.34 27.056 65.42 25.472 65.42 23.792V22.688ZM65.6 22.688H66.416V23.792C66.416 25.424 67.508 26.9 69.128 27.488L68.6 28.292C66.8 27.596 65.6 25.856 65.6 23.792V22.688ZM74.5511 23.168H81.5351V23.996H74.5511V23.168ZM73.5191 30.596H83.3231V31.424H73.5191V30.596ZM77.3231 26.72H78.3191V31.004H77.3231V26.72ZM81.1631 23.168H82.1471V24.248C82.1471 25.592 82.1471 27.08 81.7511 29.276L80.7551 29.144C81.1631 27.068 81.1631 25.544 81.1631 24.248V23.168ZM85.2901 26.756H90.8461V27.572H85.2901V26.756ZM87.5101 27.404H88.5181V29.9H87.5101V27.404ZM85.2901 23.108H90.7861V23.924H86.2861V27.044H85.2901V23.108ZM92.2741 22.076H93.2701V32.948H92.2741V22.076ZM84.6301 30.596L84.4861 29.768C86.6101 29.756 89.2741 29.732 91.5661 29.456L91.6501 30.2C89.2741 30.56 86.6821 30.608 84.6301 30.596ZM98.1172 28.7H98.8972V29.324C98.8972 30.764 98.0092 32.204 96.4492 32.804L95.9452 32.06C97.3132 31.556 98.1172 30.38 98.1172 29.324V28.7ZM98.3452 28.7H99.0892V29.324C99.0892 30.428 99.7252 31.616 101.033 32.144L100.613 32.9C99.0412 32.288 98.3452 30.776 98.3452 29.324V28.7ZM102.137 28.7H102.869V29.324C102.869 30.608 102.161 32.24 100.613 32.9L100.181 32.144C101.477 31.544 102.137 30.272 102.137 29.324V28.7ZM102.329 28.7H103.109V29.324C103.109 30.464 103.901 31.592 105.293 32.06L104.777 32.804C103.205 32.228 102.329 30.836 102.329 29.324V28.7ZM100.685 24.8H103.553V25.628H100.685V24.8ZM98.3092 22.7C99.9052 22.7 101.093 23.744 101.093 25.244C101.093 26.732 99.9052 27.776 98.3092 27.776C96.7132 27.776 95.5372 26.732 95.5372 25.244C95.5372 23.744 96.7132 22.7 98.3092 22.7ZM98.3092 23.528C97.2532 23.528 96.4852 24.248 96.4852 25.244C96.4852 26.24 97.2532 26.948 98.3092 26.948C99.3532 26.948 100.133 26.24 100.133 25.244C100.133 24.248 99.3532 23.528 98.3092 23.528ZM103.277 22.088H104.273V28.268H103.277V22.088ZM107.512 28.592H108.496V29.852H113.8V28.592H114.796V32.792H107.512V28.592ZM108.496 30.62V31.988H113.8V30.62H108.496ZM106.264 27.032H116.068V27.836H106.264V27.032ZM110.668 22.208H111.52V22.688C111.52 24.572 109.42 25.928 107.188 26.264L106.828 25.484C108.784 25.22 110.668 24.056 110.668 22.688V22.208ZM110.824 22.208H111.676V22.688C111.676 24.032 113.584 25.22 115.516 25.484L115.144 26.264C112.936 25.928 110.824 24.548 110.824 22.688V22.208ZM125.079 22.088H126.075V32.936H125.079V22.088ZM117.879 23.144H118.863V29.864H117.879V23.144ZM117.879 29.276H118.767C120.411 29.276 122.127 29.156 123.963 28.772L124.083 29.624C122.199 30.008 120.483 30.14 118.767 30.14H117.879V29.276ZM135.446 22.076H136.454V32.948H135.446V22.076ZM136.214 26.36H138.23V27.2H136.214V26.36ZM128.57 29.408H129.422C131.426 29.408 132.83 29.336 134.45 29.036L134.558 29.876C132.89 30.188 131.462 30.248 129.422 30.248H128.57V29.408ZM128.57 23.132H133.61V23.948H129.554V29.78H128.57V23.132Z" fill="white"/>
<circle cx="18.5" cy="27.5" r="7" stroke="#F15746"/>
<path d="M19.168 30.4678C19.168 30.5719 19.1484 30.6696 19.1094 30.7607C19.0703 30.8519 19.0166 30.9316 18.9482 31C18.8831 31.0684 18.805 31.1221 18.7139 31.1611C18.6227 31.2002 18.5251 31.2197 18.4209 31.2197C18.3167 31.2197 18.2191 31.2002 18.1279 31.1611C18.0368 31.1221 17.957 31.0684 17.8887 31C17.8203 30.9316 17.7666 30.8519 17.7275 30.7607C17.6885 30.6696 17.6689 30.5719 17.6689 30.4678C17.6689 30.3669 17.6885 30.2708 17.7275 30.1797C17.7666 30.0885 17.8203 30.0104 17.8887 29.9453C17.957 29.8802 18.0368 29.8281 18.1279 29.7891C18.2191 29.75 18.3167 29.7305 18.4209 29.7305C18.5251 29.7305 18.6227 29.75 18.7139 29.7891C18.805 29.8281 18.8831 29.8802 18.9482 29.9453C19.0166 30.0104 19.0703 30.0885 19.1094 30.1797C19.1484 30.2708 19.168 30.3669 19.168 30.4678ZM19.2803 24.7305C19.2803 24.9388 19.2673 25.1764 19.2412 25.4434C19.2184 25.707 19.1859 25.9886 19.1436 26.2881C19.1045 26.5876 19.0589 26.9001 19.0068 27.2256C18.9548 27.5479 18.9027 27.8701 18.8506 28.1924C18.8213 28.3812 18.792 28.5651 18.7627 28.7441C18.7334 28.9232 18.7057 29.099 18.6797 29.2715C18.6699 29.3366 18.6406 29.3903 18.5918 29.4326C18.543 29.4717 18.486 29.4912 18.4209 29.4912C18.359 29.4912 18.3037 29.4717 18.2549 29.4326C18.2093 29.3903 18.1816 29.3366 18.1719 29.2715C18.1458 29.0957 18.1165 28.9134 18.084 28.7246C18.0514 28.5358 18.0205 28.3405 17.9912 28.1387C17.9391 27.8229 17.887 27.5072 17.835 27.1914C17.7861 26.8724 17.7422 26.5664 17.7031 26.2734C17.6641 25.9772 17.6315 25.6989 17.6055 25.4385C17.5827 25.1748 17.5713 24.9388 17.5713 24.7305C17.5713 24.6133 17.5924 24.5042 17.6348 24.4033C17.6803 24.2992 17.7422 24.208 17.8203 24.1299C17.8984 24.0518 17.988 23.9915 18.0889 23.9492C18.193 23.9036 18.3037 23.8809 18.4209 23.8809C18.5381 23.8809 18.6488 23.9036 18.7529 23.9492C18.8571 23.9915 18.9482 24.0518 19.0264 24.1299C19.1045 24.208 19.1663 24.2992 19.2119 24.4033C19.2575 24.5042 19.2803 24.6133 19.2803 24.7305Z" fill="#F15746"/>
</svg>
