<svg width="179" height="179" viewBox="0 0 179 179" fill="none" xmlns="http://www.w3.org/2000/svg">
<mask id="path-1-inside-1_2006_431" fill="white">
<path fill-rule="evenodd" clip-rule="evenodd" d="M132.912 146.241C128.497 147.27 124.177 148.629 119.953 150.317L94.7873 107.112C95.5912 106.837 96.8273 106.31 98.4953 105.531C100.224 104.524 101.994 103.59 103.806 102.727L108.99 99.7074L112.447 97.6941C120.224 93.1643 127.239 87.8242 133.494 81.6737C139.664 75.3793 144.383 68.5801 147.651 61.2761C150.919 53.972 152.406 46.259 152.111 38.1369C151.96 29.9309 149.41 21.5794 144.461 13.0823C141.419 7.85992 138.087 3.49914 134.466 1.60537e-07L179 1.16561e-07V179H103.99L150.202 152.083L145.421 143.874C141.557 144.195 137.388 144.984 132.912 146.241ZM78.0657 179C78.6438 178.271 79.242 177.555 79.8602 176.853C82.4414 173.999 85.0043 171.446 87.5491 169.192L16.3301 46.9212C12.6822 48.2745 9.0524 49.3279 5.44084 50.0814C3.5752 50.3891 1.76158 50.6173 0 50.766L8.44157e-08 179H78.0657ZM8.44157e-08 37.0487L17.4047 26.911C23.1654 23.5556 29.5504 19.4507 36.5597 14.5965C43.7131 9.65835 50.3861 5.38574 56.5789 1.77865C57.6264 1.16848 58.6786 0.575595 59.7354 0L8.44157e-08 1.16561e-07V37.0487ZM52.4799 23.5504C54.0403 22.2558 56.2607 20.7696 59.1411 19.0919C68.3582 13.7232 77.3689 12.1394 86.1732 14.3405C94.9775 16.5416 102.735 23.4028 109.446 34.9242C112.969 40.9729 115.125 46.6609 115.913 51.988C116.702 57.3152 116.453 62.1858 115.166 66.5998C114.024 70.93 112.03 74.7917 109.184 78.185C106.339 81.5783 102.972 84.4074 99.0833 86.6723L92.8186 90.3213C90.1424 91.6873 88.0304 92.5317 86.4826 92.8546L48.2306 27.1828C49.5632 25.828 50.9796 24.6172 52.4799 23.5504Z"/>
</mask>
<path fill-rule="evenodd" clip-rule="evenodd" d="M132.912 146.241C128.497 147.27 124.177 148.629 119.953 150.317L94.7873 107.112C95.5912 106.837 96.8273 106.31 98.4953 105.531C100.224 104.524 101.994 103.59 103.806 102.727L108.99 99.7074L112.447 97.6941C120.224 93.1643 127.239 87.8242 133.494 81.6737C139.664 75.3793 144.383 68.5801 147.651 61.2761C150.919 53.972 152.406 46.259 152.111 38.1369C151.96 29.9309 149.41 21.5794 144.461 13.0823C141.419 7.85992 138.087 3.49914 134.466 1.60537e-07L179 1.16561e-07V179H103.99L150.202 152.083L145.421 143.874C141.557 144.195 137.388 144.984 132.912 146.241ZM78.0657 179C78.6438 178.271 79.242 177.555 79.8602 176.853C82.4414 173.999 85.0043 171.446 87.5491 169.192L16.3301 46.9212C12.6822 48.2745 9.0524 49.3279 5.44084 50.0814C3.5752 50.3891 1.76158 50.6173 0 50.766L8.44157e-08 179H78.0657ZM8.44157e-08 37.0487L17.4047 26.911C23.1654 23.5556 29.5504 19.4507 36.5597 14.5965C43.7131 9.65835 50.3861 5.38574 56.5789 1.77865C57.6264 1.16848 58.6786 0.575595 59.7354 0L8.44157e-08 1.16561e-07V37.0487ZM52.4799 23.5504C54.0403 22.2558 56.2607 20.7696 59.1411 19.0919C68.3582 13.7232 77.3689 12.1394 86.1732 14.3405C94.9775 16.5416 102.735 23.4028 109.446 34.9242C112.969 40.9729 115.125 46.6609 115.913 51.988C116.702 57.3152 116.453 62.1858 115.166 66.5998C114.024 70.93 112.03 74.7917 109.184 78.185C106.339 81.5783 102.972 84.4074 99.0833 86.6723L92.8186 90.3213C90.1424 91.6873 88.0304 92.5317 86.4826 92.8546L48.2306 27.1828C49.5632 25.828 50.9796 24.6172 52.4799 23.5504Z" fill="black"/>
<path fill-rule="evenodd" clip-rule="evenodd" d="M132.912 146.241C128.497 147.27 124.177 148.629 119.953 150.317L94.7873 107.112C95.5912 106.837 96.8273 106.31 98.4953 105.531C100.224 104.524 101.994 103.59 103.806 102.727L108.99 99.7074L112.447 97.6941C120.224 93.1643 127.239 87.8242 133.494 81.6737C139.664 75.3793 144.383 68.5801 147.651 61.2761C150.919 53.972 152.406 46.259 152.111 38.1369C151.96 29.9309 149.41 21.5794 144.461 13.0823C141.419 7.85992 138.087 3.49914 134.466 1.60537e-07L179 1.16561e-07V179H103.99L150.202 152.083L145.421 143.874C141.557 144.195 137.388 144.984 132.912 146.241ZM78.0657 179C78.6438 178.271 79.242 177.555 79.8602 176.853C82.4414 173.999 85.0043 171.446 87.5491 169.192L16.3301 46.9212C12.6822 48.2745 9.0524 49.3279 5.44084 50.0814C3.5752 50.3891 1.76158 50.6173 0 50.766L8.44157e-08 179H78.0657ZM8.44157e-08 37.0487L17.4047 26.911C23.1654 23.5556 29.5504 19.4507 36.5597 14.5965C43.7131 9.65835 50.3861 5.38574 56.5789 1.77865C57.6264 1.16848 58.6786 0.575595 59.7354 0L8.44157e-08 1.16561e-07V37.0487ZM52.4799 23.5504C54.0403 22.2558 56.2607 20.7696 59.1411 19.0919C68.3582 13.7232 77.3689 12.1394 86.1732 14.3405C94.9775 16.5416 102.735 23.4028 109.446 34.9242C112.969 40.9729 115.125 46.6609 115.913 51.988C116.702 57.3152 116.453 62.1858 115.166 66.5998C114.024 70.93 112.03 74.7917 109.184 78.185C106.339 81.5783 102.972 84.4074 99.0833 86.6723L92.8186 90.3213C90.1424 91.6873 88.0304 92.5317 86.4826 92.8546L48.2306 27.1828C49.5632 25.828 50.9796 24.6172 52.4799 23.5504Z" fill="black" fill-opacity="0.2"/>
<path d="M119.953 150.317L119.089 150.821L119.523 151.566L120.324 151.246L119.953 150.317ZM132.912 146.241L133.139 147.215L133.161 147.21L133.183 147.204L132.912 146.241ZM94.7873 107.112L94.4632 106.166L93.3092 106.562L93.9232 107.616L94.7873 107.112ZM98.4953 105.531L98.9184 106.437L98.9595 106.418L98.9987 106.395L98.4953 105.531ZM103.806 102.727L104.236 103.63L104.273 103.612L104.309 103.591L103.806 102.727ZM108.99 99.7074L109.494 100.571L108.99 99.7074ZM112.447 97.6941L112.95 98.5582H112.95L112.447 97.6941ZM133.494 81.6737L134.195 82.3867L134.201 82.3803L134.208 82.3738L133.494 81.6737ZM147.651 61.2761L146.738 60.8677V60.8677L147.651 61.2761ZM152.111 38.1369L151.111 38.1552L151.111 38.1642L151.112 38.1731L152.111 38.1369ZM144.461 13.0823L145.325 12.579L144.461 13.0823ZM134.466 1.60537e-07V-1H131.992L133.771 0.719168L134.466 1.60537e-07ZM179 1.16561e-07H180V-1H179V1.16561e-07ZM179 179V180H180V179H179ZM103.99 179L103.486 178.136L100.286 180H103.99V179ZM150.202 152.083L150.705 152.947L151.57 152.443L151.066 151.579L150.202 152.083ZM145.421 143.874L146.285 143.37L145.967 142.825L145.338 142.877L145.421 143.874ZM78.0657 179V180H78.5489L78.8492 179.621L78.0657 179ZM79.8602 176.853L79.1185 176.182L79.1094 176.192L79.8602 176.853ZM87.5491 169.192L88.2122 169.94L88.8259 169.397L88.4133 168.688L87.5491 169.192ZM16.3301 46.9212L17.1942 46.4179L16.7709 45.6911L15.9823 45.9836L16.3301 46.9212ZM5.44084 50.0814L5.60357 51.068L5.6244 51.0646L5.64507 51.0603L5.44084 50.0814ZM0 50.766L-0.084144 49.7696L-1 49.8469V50.766H0ZM8.44157e-08 179H-1V180H8.44157e-08V179ZM8.44157e-08 37.0487H-1V38.7885L0.503315 37.9128L8.44157e-08 37.0487ZM17.4047 26.911L16.9014 26.0469L17.4047 26.911ZM36.5597 14.5965L35.9916 13.7735L35.9904 13.7744L36.5597 14.5965ZM56.5789 1.77865L57.0822 2.64276L56.5789 1.77865ZM59.7354 0L60.2137 0.87819L59.7354 -1V0ZM8.44157e-08 1.16561e-07L8.24644e-08 -1H-1V1.16561e-07H8.44157e-08ZM59.1411 19.0919L58.6378 18.2278L59.1411 19.0919ZM52.4799 23.5504L53.0594 24.3654L53.0897 24.3438L53.1184 24.32L52.4799 23.5504ZM109.446 34.9242L110.31 34.4209L109.446 34.9242ZM115.166 66.5998L114.206 66.32L114.203 66.3323L114.199 66.3447L115.166 66.5998ZM109.184 78.185L109.95 78.8275L109.184 78.185ZM99.0833 86.6723L99.5866 87.5364H99.5867L99.0833 86.6723ZM92.8186 90.3213L93.2732 91.212L93.2979 91.1994L93.3219 91.1854L92.8186 90.3213ZM86.4826 92.8546L85.6185 93.3579L85.9812 93.9807L86.6868 93.8335L86.4826 92.8546ZM48.2306 27.1828L47.5177 26.4816L46.9821 27.0261L47.3665 27.6861L48.2306 27.1828ZM120.324 151.246C124.502 149.576 128.773 148.232 133.139 147.215L132.685 145.267C128.221 146.307 123.853 147.681 119.582 149.389L120.324 151.246ZM93.9232 107.616L119.089 150.821L120.817 149.814L95.6514 106.609L93.9232 107.616ZM98.0723 104.625C96.4083 105.402 95.2132 105.909 94.4632 106.166L95.1113 108.058C95.9693 107.764 97.2462 107.218 98.9184 106.437L98.0723 104.625ZM103.376 101.824C101.539 102.699 99.7443 103.646 97.992 104.667L98.9987 106.395C100.703 105.403 102.448 104.481 104.236 103.63L103.376 101.824ZM108.487 98.8433L103.302 101.863L104.309 103.591L109.494 100.571L108.487 98.8433ZM111.944 96.83L108.487 98.8433L109.494 100.571L112.95 98.5582L111.944 96.83ZM132.793 80.9607C126.599 87.0512 119.65 92.341 111.944 96.83L112.95 98.5582C120.797 93.9875 127.88 88.5971 134.195 82.3867L132.793 80.9607ZM146.738 60.8677C143.524 68.053 138.876 74.7554 132.78 80.9737L134.208 82.3738C140.453 76.0033 145.243 69.1072 148.564 61.6845L146.738 60.8677ZM151.112 38.1731C151.401 46.1448 149.943 53.7056 146.738 60.8677L148.564 61.6845C151.895 54.2385 153.411 46.3731 153.11 38.1006L151.112 38.1731ZM143.597 13.5857C148.477 21.9644 150.964 30.1506 151.111 38.1552L153.111 38.1185C152.956 29.7111 150.343 21.1943 145.325 12.579L143.597 13.5857ZM133.771 0.719168C137.315 4.14323 140.592 8.42731 143.597 13.5857L145.325 12.579C142.246 7.29253 138.86 2.85505 135.161 -0.719168L133.771 0.719168ZM134.466 1H179V-1L134.466 -1V1ZM178 1.16561e-07V179H180V1.16561e-07H178ZM179 178H103.99V180H179V178ZM149.699 151.218L103.486 178.136L104.493 179.864L150.705 152.947L149.699 151.218ZM144.557 144.377L149.338 152.586L151.066 151.579L146.285 143.37L144.557 144.377ZM133.183 147.204C137.609 145.961 141.715 145.185 145.504 144.87L145.338 142.877C141.4 143.205 137.167 144.007 132.642 145.278L133.183 147.204ZM78.8492 179.621C79.4166 178.906 80.0039 178.203 80.6109 177.513L79.1094 176.192C78.4801 176.908 77.871 177.636 77.2822 178.379L78.8492 179.621ZM80.6018 177.524C83.1614 174.694 85.6983 172.167 88.2122 169.94L86.8861 168.443C84.3104 170.724 81.7213 173.305 79.1186 176.182L80.6018 177.524ZM88.4133 168.688L17.1942 46.4179L15.466 47.4245L86.685 169.695L88.4133 168.688ZM15.9823 45.9836C12.3786 47.3205 8.79677 48.3597 5.23661 49.1024L5.64507 51.0603C9.30803 50.2961 12.9857 49.2285 16.6779 47.8588L15.9823 45.9836ZM5.27811 49.0947C3.43674 49.3984 1.64938 49.6232 -0.084144 49.7696L0.084144 51.7625C1.87378 51.6114 3.71365 51.3797 5.60357 51.068L5.27811 49.0947ZM1 179L1 50.766H-1L-1 179H1ZM78.0657 178H8.44157e-08V180H78.0657V178ZM0.503315 37.9128L17.908 27.7751L16.9014 26.0469L-0.503315 36.1846L0.503315 37.9128ZM17.908 27.7751C23.6964 24.4035 30.1039 20.2838 37.1291 15.4186L35.9904 13.7744C28.9969 18.6176 22.6343 22.7076 16.9014 26.0469L17.908 27.7751ZM37.1278 15.4194C44.2644 10.4929 50.9156 6.2346 57.0822 2.64276L56.0756 0.914551C49.8566 4.53688 43.1618 8.82379 35.9916 13.7735L37.1278 15.4194ZM57.0822 2.64276C58.1215 2.03736 59.1654 1.44918 60.2137 0.87819L59.2571 -0.87819C58.1918 -0.297985 57.1313 0.299597 56.0756 0.914551L57.0822 2.64276ZM8.63669e-08 1L59.7354 1V-1L8.24644e-08 -1L8.63669e-08 1ZM1 37.0487V1.16561e-07H-1V37.0487H1ZM58.6378 18.2278C55.736 19.918 53.4624 21.4359 51.8414 22.7808L53.1184 24.32C54.6182 23.0757 56.7855 21.6212 59.6444 19.956L58.6378 18.2278ZM86.4157 13.3704C77.3146 11.095 68.0378 12.7525 58.6378 18.2278L59.6444 19.956C68.6786 14.6938 77.4232 13.1837 85.9307 15.3106L86.4157 13.3704ZM110.31 34.4209C103.527 22.7759 95.5833 15.6623 86.4157 13.3704L85.9307 15.3106C94.3718 17.4209 101.943 24.0298 108.582 35.4275L110.31 34.4209ZM116.903 51.8416C116.091 46.3571 113.879 40.5482 110.31 34.4209L108.582 35.4275C112.059 41.3977 114.159 46.9646 114.924 52.1344L116.903 51.8416ZM116.126 66.8796C117.459 62.3056 117.708 57.2871 116.903 51.8416L114.924 52.1344C115.695 57.3432 115.446 62.066 114.206 66.32L116.126 66.8796ZM109.95 78.8275C112.892 75.3201 114.953 71.3258 116.133 66.8549L114.199 66.3447C113.094 70.5342 111.168 74.2632 108.418 77.5424L109.95 78.8275ZM99.5867 87.5364C103.573 85.2143 107.03 82.3107 109.95 78.8275L108.418 77.5424C105.648 80.8458 102.37 83.6004 98.58 85.8082L99.5867 87.5364ZM93.3219 91.1854L99.5866 87.5364L98.58 85.8082L92.3153 89.4572L93.3219 91.1854ZM86.6868 93.8335C88.3678 93.4828 90.5753 92.589 93.2732 91.212L92.364 89.4306C89.7095 90.7855 87.6929 91.5806 86.2783 91.8757L86.6868 93.8335ZM47.3665 27.6861L85.6185 93.3579L87.3467 92.3513L49.0947 26.6795L47.3665 27.6861ZM51.9004 22.7355C50.3509 23.8372 48.89 25.0863 47.5177 26.4816L48.9436 27.884C50.2364 26.5696 51.6083 25.3972 53.0594 24.3654L51.9004 22.7355Z" fill="black" mask="url(#path-1-inside-1_2006_431)"/>
</svg>
